<svg width="198" height="198" viewBox="0 0 198 198" fill="none" xmlns="http://www.w3.org/2000/svg">
    <g clip-path="url(#clip0_214_11)">
        <mask id="mask0_214_11" style="mask-type:luminance" maskUnits="userSpaceOnUse" x="0" y="0" width="198" height="198">
            <path d="M198 0H0V198H198V0Z" fill="white"/>
        </mask>
        <g mask="url(#mask0_214_11)">
            <path d="M176.464 0.0180054H21.5359C9.65192 0.0180054 0.0180664 9.65189 0.0180664 21.5359V176.464C0.0180664 188.349 9.65192 197.982 21.5359 197.982H176.464C188.349 197.982 197.982 188.349 197.982 176.464V21.5359C197.982 9.65189 188.349 0.0180054 176.464 0.0180054Z" fill="black" stroke="black" stroke-width="2"/>
        </g>
        <g clip-path="url(#clip1_214_11)">
            <path fill-rule="evenodd" clip-rule="evenodd" d="M99.3346 45C68.736 45 44 69.9792 44 100.882C44 125.584 59.8492 146.494 81.8363 153.894C84.5852 154.451 85.5922 152.692 85.5922 151.213C85.5922 149.917 85.5015 145.476 85.5015 140.85C70.1088 144.181 66.9034 134.188 66.9034 134.188C64.4297 127.712 60.7644 126.047 60.7644 126.047C55.7264 122.624 61.1314 122.624 61.1314 122.624C66.7199 122.994 69.6523 128.36 69.6523 128.36C74.5986 136.871 82.5691 134.466 85.7756 132.986C86.2332 129.377 87.7 126.879 89.2574 125.492C76.9806 124.196 64.0638 119.386 64.0638 97.9206C64.0638 91.8144 66.2612 86.8185 69.7429 82.9331C69.1936 81.5457 67.2692 75.8084 70.2934 68.1296C70.2934 68.1296 74.9656 66.649 85.5004 73.8657C90.0107 72.6425 94.6622 72.0202 99.3346 72.015C104.007 72.015 108.77 72.6633 113.168 73.8657C123.704 66.649 128.376 68.1296 128.376 68.1296C131.4 75.8084 129.475 81.5457 128.925 82.9331C132.499 86.8185 134.605 91.8144 134.605 97.9206C134.605 119.386 121.689 124.103 109.32 125.492C111.336 127.25 113.076 130.58 113.076 135.854C113.076 143.348 112.985 149.362 112.985 151.211C112.985 152.692 113.993 154.451 116.741 153.896C138.728 146.493 154.578 125.584 154.578 100.882C154.668 69.9792 129.842 45 99.3346 45Z" fill="white"/>
        </g>
    </g>
    <defs>
        <clipPath id="clip0_214_11">
            <rect width="198" height="198" fill="white"/>
        </clipPath>
        <clipPath id="clip1_214_11">
            <rect width="111" height="109" fill="white" transform="translate(44 45)"/>
        </clipPath>
    </defs>
</svg>
