<svg width="198" height="198" viewBox="0 0 198 198" fill="none" xmlns="http://www.w3.org/2000/svg">
    <g clip-path="url(#clip0_210_11)">
        <mask id="mask0_210_11" style="mask-type:luminance" maskUnits="userSpaceOnUse" x="0" y="0" width="198" height="198">
            <path d="M198 0H0V198H198V0Z" fill="white"/>
        </mask>
        <g mask="url(#mask0_210_11)">
            <path d="M176.464 0.0180054H21.5359C9.65192 0.0180054 0.0180664 9.65189 0.0180664 21.5359V176.464C0.0180664 188.349 9.65192 197.982 21.5359 197.982H176.464C188.349 197.982 197.982 188.349 197.982 176.464V21.5359C197.982 9.65189 188.349 0.0180054 176.464 0.0180054Z" fill="black" stroke="black" stroke-width="2"/>
            <path d="M61.6647 74.0204C68.4677 74.0204 73.9826 68.497 73.9826 61.6837C73.9826 54.8703 68.4677 49.3469 61.6647 49.3469C54.8618 49.3469 49.3469 54.8703 49.3469 61.6837C49.3469 68.497 54.8618 74.0204 61.6647 74.0204Z" fill="white"/>
            <path d="M71.7817 84H51.6086V148.653H71.7817V84Z" fill="white"/>
            <path fill-rule="evenodd" clip-rule="evenodd" d="M133.463 84.1224C116.175 80.0326 106.738 87.6018 104.181 91.8979V114.918C104.181 107.939 107.767 103.643 109.561 102.367C111.058 101.061 115.545 98.749 121.512 99.949C127.478 101.149 128.542 109.898 128.328 114.122V148.653H148.501V114.122C149.022 107.124 148.065 102.364 147.754 100.815V100.814C147.718 100.636 147.691 100.5 147.675 100.408C147.288 98.1122 145.732 92.6939 142.602 89.3877C139.472 86.0816 135.205 84.5002 133.463 84.1224ZM84.0081 84H104.181V148.653H84.0081V84Z" fill="white"/>
        </g>
    </g>
    <defs>
        <clipPath id="clip0_210_11">
            <rect width="198" height="198" fill="white"/>
        </clipPath>
    </defs>
</svg>
