<svg width="144" height="144" viewBox="0 0 144 144" fill="none" xmlns="http://www.w3.org/2000/svg">
    <path fill-rule="evenodd" clip-rule="evenodd" d="M85.6858 23.3408H57.9323L44.0556 47.376L57.9324 71.4112H85.6858L99.5626 47.376L85.6858 23.3408ZM106.491 47.376L89.1498 17.3408H54.4682L37.1274 47.376L54.4682 77.4112H89.1498L106.491 47.376Z" fill="#DB5B00"/>
    <path fill-rule="evenodd" clip-rule="evenodd" d="M110.501 66.105H82.7475L68.8706 90.1402L82.7475 114.175H110.501L124.378 90.1402L110.501 66.105ZM131.306 90.1402L113.965 60.105H79.2834L61.9424 90.1402L79.2834 120.175H113.965L131.306 90.1402Z" fill="#DB5B00"/>
    <path fill-rule="evenodd" clip-rule="evenodd" d="M61.2527 66.105H33.4993L19.6225 90.1402L33.4993 114.175H61.2527L75.1294 90.1402L61.2527 66.105ZM82.0576 90.1402L64.7168 60.105H30.0352L12.6943 90.1402L30.0352 120.175H64.7168L82.0576 90.1402Z" fill="#DB5B00"/>
</svg>