<svg width="144" height="144" viewBox="0 0 144 144" fill="none" xmlns="http://www.w3.org/2000/svg">
    <path fill-rule="evenodd" clip-rule="evenodd" d="M89 55H55V89H89V55ZM95 49V95H49V49H95Z" fill="black"/>
    <path fill-rule="evenodd" clip-rule="evenodd" d="M119 25H85V59H119V25ZM125 19V65H79V19H125Z" fill="black"/>
    <path fill-rule="evenodd" clip-rule="evenodd" d="M119 85H85V119H119V85ZM125 79V125H79V79H125Z" fill="black"/>
    <path fill-rule="evenodd" clip-rule="evenodd" d="M59 25H25V59H59V25ZM65 19V65H19V19H65Z" fill="black"/>
    <path fill-rule="evenodd" clip-rule="evenodd" d="M59 85H25V119H59V85ZM65 79V125H19V79H65Z" fill="black"/>
</svg>
