<svg width="144" height="144" viewBox="0 0 144 144" fill="none" xmlns="http://www.w3.org/2000/svg">
    <path fill-rule="evenodd" clip-rule="evenodd" d="M72 44.9936L45.9239 71.3765L72 97.7593L98.076 71.3765L72 44.9936ZM37.4884 71.3765L72 106.294L106.512 71.3765L72 36.4589L37.4884 71.3765Z" fill="#00DB79"/>
    <path fill-rule="evenodd" clip-rule="evenodd" d="M72 91.1347L59.482 103.8L72 116.465L84.518 103.8L72 91.1347ZM51.0465 103.8L72 125L92.9535 103.8L72 82.6L51.0465 103.8Z" fill="#00DB79"/>
    <path fill-rule="evenodd" clip-rule="evenodd" d="M104.047 58.7112L91.5285 71.3765L104.047 84.0417L116.564 71.3765L104.047 58.7112ZM83.093 71.3765L104.047 92.5765L125 71.3765L104.047 50.1765L83.093 71.3765Z" fill="#00DB79"/>
    <path fill-rule="evenodd" clip-rule="evenodd" d="M39.9535 58.7112L27.4355 71.3765L39.9535 84.0417L52.4715 71.3765L39.9535 58.7112ZM19 71.3765L39.9535 92.5765L60.907 71.3765L39.9535 50.1765L19 71.3765Z" fill="#00DB79"/>
    <path fill-rule="evenodd" clip-rule="evenodd" d="M72 27.5348L59.482 40.2L72 52.8653L84.518 40.2L72 27.5348ZM51.0465 40.2L72 61.4L92.9535 40.2L72 19L51.0465 40.2Z" fill="#00DB79"/>
</svg>
