<svg width="144" height="144" viewBox="0 0 144 144" fill="none" xmlns="http://www.w3.org/2000/svg">
    <path fill-rule="evenodd" clip-rule="evenodd" d="M71.9999 44.9936L45.9238 71.3765L71.9998 97.7593L98.0759 71.3765L71.9999 44.9936ZM37.4883 71.3765L71.9998 106.294L106.511 71.3765L71.9999 36.4589L37.4883 71.3765Z" fill="white"/>
    <path fill-rule="evenodd" clip-rule="evenodd" d="M72.0001 91.1347L59.4821 103.8L72.0001 116.465L84.5181 103.8L72.0001 91.1347ZM51.0466 103.8L72.0001 125L92.9536 103.8L72.0001 82.6L51.0466 103.8Z" fill="white"/>
    <path fill-rule="evenodd" clip-rule="evenodd" d="M104.047 58.7112L91.5285 71.3765L104.047 84.0417L116.564 71.3765L104.047 58.7112ZM83.093 71.3765L104.047 92.5765L125 71.3765L104.047 50.1765L83.093 71.3765Z" fill="white"/>
    <path fill-rule="evenodd" clip-rule="evenodd" d="M39.9535 58.7112L27.4355 71.3765L39.9535 84.0417L52.4715 71.3765L39.9535 58.7112ZM19 71.3765L39.9535 92.5765L60.907 71.3765L39.9535 50.1765L19 71.3765Z" fill="white"/>
    <path fill-rule="evenodd" clip-rule="evenodd" d="M72.0001 27.5348L59.4821 40.2L72.0001 52.8653L84.5181 40.2L72.0001 27.5348ZM51.0466 40.2L72.0001 61.4L92.9536 40.2L72.0001 19L51.0466 40.2Z" fill="white"/>
</svg>
