<svg width="137" height="137" viewBox="0 0 137 137" fill="none" xmlns="http://www.w3.org/2000/svg">
    <g clip-path="url(#clip0_200_401)">
        <path fill-rule="evenodd" clip-rule="evenodd" d="M96.2824 98.5871H96.1203H91.9213C90.4817 109.012 87.5246 130.568 87.2074 133.388C86.8902 136.207 85.3425 136.971 84.6084 137C79.9095 136.971 69.3402 136.93 64.6531 137C59.966 137.07 58.0894 132.272 57.737 129.864C57.6635 130.436 57.5608 130.313 57.737 125.238C57.9132 120.164 62.2449 118.307 64.3888 118.014H69.2344V98.5871C66.2037 98.6929 66.0333 96.8101 66.327 95.8559L69.8952 86.3408C68.2741 85.4246 66.283 83.1985 65.4901 82.2C61.2611 76.3705 53.42 60.7998 55.8868 45.1527C58.3537 29.5057 73.3018 23.8025 80.4675 22.9068H81.5412C81.4527 22.0136 81.4071 21.1019 81.4071 20.1756C81.4071 9.03293 88.0141 0 96.1643 0C104.315 0 110.922 9.03293 110.922 20.1756C110.922 21.1019 110.876 22.0136 110.788 22.9068H111.935C119.1 23.8025 134.049 29.5057 136.515 45.1527C138.982 60.7998 131.141 76.3705 126.912 82.2C126.119 83.1985 124.128 85.4246 122.507 86.3408L126.075 95.8559C126.369 96.8101 126.199 98.6929 123.168 98.5871V118.014H128.014C130.157 118.307 134.489 120.164 134.665 125.238C134.841 130.313 134.738 130.436 134.665 129.864C134.313 132.272 132.436 137.07 127.749 137C123.062 136.93 112.492 136.971 107.794 137C107.06 136.971 105.512 136.207 105.195 133.388C104.878 130.568 101.92 109.012 100.481 98.5871H96.2824Z" fill="white"/>
        <path d="M45.4611 66.5177H0V137H45.4611V66.5177Z" fill="white"/>
        <path d="M35.2411 78.764H26.7832V92.8604H35.2411V78.764Z" fill="black"/>
        <path d="M35.2411 103.521H26.7832V117.617H35.2411V103.521Z" fill="black"/>
        <path d="M18.8541 78.764H10.3962V92.8604H18.8541V78.764Z" fill="black"/>
        <path d="M18.8541 103.521H10.3962V117.617H18.8541V103.521Z" fill="black"/>
    </g>
    <defs>
        <clipPath id="clip0_200_401">
            <rect width="137" height="137" fill="white"/>
        </clipPath>
    </defs>
</svg>
