<svg width="138" height="137" viewBox="0 0 138 137" fill="none" xmlns="http://www.w3.org/2000/svg">
    <g clip-path="url(#clip0_169_39)">
        <path fill-rule="evenodd" clip-rule="evenodd" d="M96.7824 98.5871H96.6203H92.4213C90.9817 109.012 88.0246 130.568 87.7074 133.388C87.3902 136.207 85.8425 136.971 85.1084 137C80.4095 136.971 69.8402 136.93 65.1531 137C60.466 137.07 58.5894 132.272 58.237 129.864C58.1635 130.436 58.0608 130.313 58.237 125.238C58.4132 120.164 62.7449 118.307 64.8888 118.014H69.7344V98.5871C66.7037 98.6929 66.5333 96.8101 66.827 95.8559L70.3952 86.3408C68.7741 85.4246 66.783 83.1985 65.9901 82.2C61.7611 76.3705 53.92 60.7998 56.3868 45.1527C58.8537 29.5057 73.8018 23.8025 80.9675 22.9068H82.0412C81.9527 22.0136 81.9071 21.1019 81.9071 20.1756C81.9071 9.03293 88.5141 0 96.6643 0C104.815 0 111.422 9.03293 111.422 20.1756C111.422 21.1019 111.376 22.0136 111.288 22.9068H112.435C119.6 23.8025 134.549 29.5057 137.015 45.1527C139.482 60.7998 131.641 76.3705 127.412 82.2C126.619 83.1985 124.628 85.4246 123.007 86.3408L126.575 95.8559C126.869 96.8101 126.699 98.6929 123.668 98.5871V118.014H128.514C130.657 118.307 134.989 120.164 135.165 125.238C135.341 130.313 135.238 130.436 135.165 129.864C134.813 132.272 132.936 137.07 128.249 137C123.562 136.93 112.992 136.971 108.294 137C107.56 136.971 106.012 136.207 105.695 133.388C105.378 130.568 102.42 109.012 100.981 98.5871H96.7824Z" fill="black"/>
        <path d="M45.9611 66.5177H0.5V137H45.9611V66.5177Z" fill="black"/>
        <path d="M35.7411 78.764H27.2832V92.8604H35.7411V78.764Z" fill="white"/>
        <path d="M35.7411 103.521H27.2832V117.617H35.7411V103.521Z" fill="white"/>
        <path d="M19.3541 78.764H10.8962V92.8604H19.3541V78.764Z" fill="white"/>
        <path d="M19.3541 103.521H10.8962V117.617H19.3541V103.521Z" fill="white"/>
    </g>
    <defs>
        <clipPath id="clip0_169_39">
            <rect width="137" height="137" fill="white" transform="translate(0.5)"/>
        </clipPath>
    </defs>
</svg>
